<svg id="c6d51a45-1212-40cb-b940-6b04799ea98c" data-name="Layer 1" xmlns="http://www.w3.org/2000/svg" xmlns:xlink="http://www.w3.org/1999/xlink" viewBox="0 0 1024 768"><defs><style>.\32 9326dd4-18e6-451d-8aaf-2f16eac17c93,.b3d55801-79ad-46b8-b730-a5ae5dfd9135{fill:#1b1464;}.b3d55801-79ad-46b8-b730-a5ae5dfd9135{stroke:#1b1464;}.\34 9ece050-118a-4937-af3f-c2c6924e0e00,.b3d55801-79ad-46b8-b730-a5ae5dfd9135{stroke-miterlimit:10;stroke-width:1.28px;}.c936e115-ef4e-41fb-8e26-6b416b62ca57{fill:url(#6e1b5019-1233-433d-aaf3-41793342783c);}.\30 2e67f72-9378-4c42-8f87-cd80eaf8de31{fill:url(#5966c98d-a0ba-4009-9642-11635f6b4cbf);}.\34 9ece050-118a-4937-af3f-c2c6924e0e00{fill:#2891b5;stroke:#2891b5;}</style><linearGradient id="6e1b5019-1233-433d-aaf3-41793342783c" x1="652.67" y1="161.76" x2="471.9" y2="359.84" gradientUnits="userSpaceOnUse"><stop offset="0" stop-color="#29abe2"/><stop offset="0.39" stop-color="#29aae0"/><stop offset="0.53" stop-color="#28a5d9"/><stop offset="0.53" stop-color="#28a5d9"/><stop offset="0.61" stop-color="#28a3d6"/><stop offset="0.68" stop-color="#279bcb"/><stop offset="0.75" stop-color="#268eb9"/><stop offset="0.81" stop-color="#247ca0"/><stop offset="0.87" stop-color="#216480"/><stop offset="0.93" stop-color="#1f4859"/><stop offset="0.98" stop-color="#1b262b"/><stop offset="1" stop-color="#1a1a1a"/></linearGradient><linearGradient id="5966c98d-a0ba-4009-9642-11635f6b4cbf" x1="583.59" y1="235.89" x2="690.34" y2="235.89" gradientUnits="userSpaceOnUse"><stop offset="0" stop-color="#29abe2"/><stop offset="0.39" stop-color="#29aae0"/><stop offset="0.53" stop-color="#28a5d9"/><stop offset="0.63" stop-color="#279cce"/><stop offset="0.71" stop-color="#2690bd"/><stop offset="0.78" stop-color="#2580a7"/><stop offset="0.85" stop-color="#236c8b"/><stop offset="0.9" stop-color="#20556b"/><stop offset="0.95" stop-color="#1d3a47"/><stop offset="1" stop-color="#1a1d1e"/><stop offset="1" stop-color="#1a1a1a"/></linearGradient></defs><title>Wilson Developers Logo</title><path class="b3d55801-79ad-46b8-b730-a5ae5dfd9135" d="M453.59,413.85H500.9q22.39,0,22.39,14.77v24.77q0,14.62-22.39,14.62H453.59ZM500.9,460q12.15,0,12.15-6.62V428.62q0-6.77-12.15-6.77H463.82V460Z"/><path class="b3d55801-79ad-46b8-b730-a5ae5dfd9135" d="M543.21,443.39V460h45.46v8H533V413.85h55.7v8H543.21v13.54h43.16v8Z"/><path class="b3d55801-79ad-46b8-b730-a5ae5dfd9135" d="M636.37,468H628.9l-36-54.16h11.16l28.77,44.23,28.46-44.23h10.85Z"/><path class="b3d55801-79ad-46b8-b730-a5ae5dfd9135" d="M687.37,443.39V460h45.46v8h-55.7V413.85h55.7v8H687.37v13.54h43.16v8Z"/><path class="b3d55801-79ad-46b8-b730-a5ae5dfd9135" d="M740.6,413.85h10.23V460h43.93v8H740.6Z"/><path class="b3d55801-79ad-46b8-b730-a5ae5dfd9135" d="M802.68,425.55q0-11.69,19.31-11.69h31.08q19.31,0,19.31,11.69v30.93q0,11.54-19.31,11.54H822q-19.31,0-19.31-11.69ZM853.07,460q9.08,0,9.08-3.54V425.55q0-3.69-9.08-3.69H822q-9.08,0-9.08,3.69v30.77q0,3.69,9.08,3.69Z"/><path class="b3d55801-79ad-46b8-b730-a5ae5dfd9135" d="M881.76,468V413.85h42.08q19.31,0,19.31,11.69v10.77q0,11.69-19.31,11.69H892v20ZM892,421.85V440h31.85q9.07,0,9.08-3.69V425.55q0-3.69-9.08-3.69Z"/><path class="b3d55801-79ad-46b8-b730-a5ae5dfd9135" d="M996.69,435.16q19.31,0,19.31,11.69v9.62Q1016,468,996.69,468H950.46v-8h46.23q9.08,0,9.08-3.54v-9.62q0-3.69-9.08-3.69H967.92q-19.31,0-19.31-11.69v-5.92q0-11.69,19.31-11.69h44.69v8H967.92q-9.08,0-9.08,3.69v5.92q0,3.69,9.08,3.69Z"/><path class="29326dd4-18e6-451d-8aaf-2f16eac17c93" d="M444.11,258.38c-17.48,31.31-33.93,60.37-49.95,89.68-6.25,11.44-14.48,17.68-28.2,16.31-14-1.4-20.56-10.22-24.09-22.17q-18.1-61.37-35.63-122.91c-.64-2.23-.08-4.81-.08-8.56,12.37,0,24.47-.6,36.45.41,3.1.26,7.34,5.12,8.37,8.65,6.82,23.28,12.93,46.77,19.23,70.19,1.16,4.3,2.18,8.63,4,15.91,3.33-5,5.24-7.43,6.66-10.1,12.51-23.65,25-47.31,37.34-71.06,6-11.52,14.44-17.19,28.1-16.77,12.77.39,20,6.57,25.38,17,11.76,22.64,23.89,45.1,35.7,67.72,5.82,11.14-4.17,36.78-16.15,40-2.72.73-8.29-2.57-9.94-5.48C471,309,461.52,290.36,451.7,271.89,449.58,267.91,447.29,264,444.11,258.38Z"/><path class="29326dd4-18e6-451d-8aaf-2f16eac17c93" d="M549.33,361.25c5.41-18.76,10.08-35.06,14.83-51.33,2.58-8.83,5.45-17.59,7.89-26.46,4.47-16.24,5.29-16.77,24.53-12.3,0,13.69.34,27.82-.13,41.92-.28,8.47,2.38,12.07,11.39,11.76,16.75-.59,33.55.16,50.3-.35,29.28-.89,45.43-21.35,41.48-50.29-3.22-23.62-11.75-44.29-29.45-61.14,31.71-1.25,66,24.49,72.63,54,8.3,37.05-9.77,72.06-45.8,86.18-11.09,4.35-23.4,7.34-35.25,7.65C625.42,361.87,589,361.25,549.33,361.25Z"/><path class="c936e115-ef4e-41fb-8e26-6b416b62ca57" d="M584.69,210.61c-8.86,30.6-16.68,57.83-24.64,85-4.22,14.43-8.76,28.76-13,43.17-5.48,18.52-11.42,24.59-25,25.26-14.85.74-23.2-5.45-30.76-23.32,17-9,22.19-25.28,26.37-42.72,6.24-26,13.58-51.69,20.3-77.55,1.83-7,5.45-10.48,13.27-10C561.48,211.07,571.85,210.61,584.69,210.61Z"/><path class="02e67f72-9378-4c42-8f87-cd80eaf8de31" d="M584.31,246.56c-.41-1-.79-1.44-.7-1.75,3.28-10.78,3.55-25.26,10.81-31.27,7.06-5.84,21.3-3,32.4-3.93,34.57-2.76,58.49,16.88,63.52,52.81C657.7,238,619.81,252.79,584.31,246.56Z"/><path class="49ece050-118a-4937-af3f-c2c6924e0e00" d="M85.49,467.53H77.8L59,426,39.87,467.53H32.41L7.48,413.38h9.85l18.85,41.54,19-41.54h7.62l18.77,41.54,19-41.54h9.92Z"/><path class="49ece050-118a-4937-af3f-c2c6924e0e00" d="M115.49,413.38h10.23v54.16H115.49Z"/><path class="49ece050-118a-4937-af3f-c2c6924e0e00" d="M134.57,413.38H144.8v46.16h43.93v8H134.57Z"/><path class="49ece050-118a-4937-af3f-c2c6924e0e00" d="M244.19,434.69q19.31,0,19.31,11.69V456q0,11.54-19.31,11.54H198v-8h46.23q9.08,0,9.08-3.54v-9.62q0-3.69-9.08-3.69H215.42q-19.31,0-19.31-11.69v-5.92q0-11.69,19.31-11.69h44.69v8H215.42q-9.08,0-9.08,3.69V431q0,3.69,9.08,3.69Z"/><path class="49ece050-118a-4937-af3f-c2c6924e0e00" d="M272.5,425.07q0-11.69,19.31-11.69h31.08q19.31,0,19.31,11.69V456q0,11.54-19.31,11.54H291.8q-19.31,0-19.31-11.69Zm50.39,34.46q9.08,0,9.08-3.54V425.07q0-3.69-9.08-3.69H291.8q-9.08,0-9.08,3.69v30.77q0,3.69,9.08,3.69Z"/><path class="49ece050-118a-4937-af3f-c2c6924e0e00" d="M361.27,426.3v41.23h-9.69V413.38h8.08l53.93,41.54V413.38h9.69v54.16h-8.08Z"/></svg>